<?xml version="1.0" encoding="UTF-8"?>
<svg xmlns="http://www.w3.org/2000/svg" width="278" height="56" viewBox="0 0 278 56" fill="none">
  <g clip-path="url(#clip0_964_992)">
    <path d="M81.2693 9.11354H74.9123V27.5926H71.9305V9.11354H65.5735V6.77992H81.2693V9.11354Z" fill="#112B19"></path>
    <path d="M92.7089 13.584V27.5927H89.87V22.922H89.8143C89.8143 26.0151 87.9124 27.8723 84.6764 27.8723C80.9876 27.8723 78.8 25.1727 78.8 20.5883C78.8 16.004 80.9841 13.3044 84.6764 13.3044C87.9124 13.3044 89.8143 15.1616 89.8143 18.2547H89.87V13.584H92.7089ZM90.0686 20.5883C90.0686 17.5505 88.5359 15.5828 85.8956 15.5828C83.2552 15.5828 81.7226 17.44 81.7226 20.5883C81.7226 23.7367 83.2552 25.5939 85.8956 25.5939C88.5359 25.5939 90.0686 23.6262 90.0686 20.5883Z" fill="#112B19"></path>
    <path d="M95.854 7.4807H98.6929V10.6601H95.854V7.4807ZM95.854 13.584H98.6929V27.5926H95.854V13.584Z" fill="#112B19"></path>
    <path d="M115.071 13.584V27.8723C115.071 31.9216 112.546 34.3415 108.23 34.3415C104.426 34.3415 101.929 32.429 101.56 29.222L104.256 28.8561C104.454 30.8825 105.931 32.0631 108.23 32.0631C110.756 32.0631 112.232 30.5718 112.232 28.0414V22.808H112.177C112.177 25.9011 110.275 27.7584 107.039 27.7584C103.35 27.7584 101.162 25.0864 101.162 20.5297C101.162 15.9729 103.347 13.3009 107.039 13.3009C110.275 13.3009 112.177 15.1582 112.177 18.2513H112.232V13.5806H115.071V13.584ZM112.431 20.5331C112.431 17.5229 110.898 15.5828 108.258 15.5828C105.618 15.5828 104.085 17.44 104.085 20.5331C104.085 23.6262 105.618 25.4834 108.258 25.4834C110.898 25.4834 112.431 23.5433 112.431 20.5331Z" fill="#112B19"></path>
    <path d="M130.91 18.9589V27.5926H128.071V19.0418C128.071 16.8463 126.852 15.5828 124.779 15.5828C122.453 15.5828 121.063 17.2156 121.063 19.9704V27.5926H118.224V5.93416H121.063V18.4515H121.118C121.118 15.2169 122.877 13.3044 125.859 13.3044C129.039 13.3044 130.91 15.4136 130.91 18.9589Z" fill="#112B19"></path>
    <path d="M147.185 5.93417V27.5927H144.346V22.922H144.29C144.29 26.0151 142.388 27.8723 139.152 27.8723C135.463 27.8723 133.276 25.1727 133.276 20.5883C133.276 16.004 135.46 13.3044 139.152 13.3044C142.388 13.3044 144.29 15.1616 144.29 18.2547H144.346V5.93417H147.185ZM144.544 20.5883C144.544 17.5505 143.012 15.5828 140.371 15.5828C137.731 15.5828 136.198 17.44 136.198 20.5883C136.198 23.7367 137.731 25.5939 140.371 25.5939C143.012 25.5939 144.544 23.6262 144.544 20.5883Z" fill="#112B19"></path>
    <path d="M162.995 20.9819H152.382C152.496 23.9369 153.97 25.6802 156.328 25.6802C158.401 25.6802 159.846 24.5548 160.216 22.6423H162.995C162.514 25.9322 160.045 27.8723 156.325 27.8723C152.096 27.8723 149.626 25.1727 149.626 20.5883C149.626 16.004 152.096 13.3044 156.325 13.3044C160.553 13.3044 162.995 16.004 162.995 20.5883V20.9819ZM152.409 19.8013H160.184C159.958 17.0741 158.568 15.4965 156.325 15.4965C154.081 15.4965 152.636 17.0707 152.409 19.8013Z" fill="#112B19"></path>
    <path d="M187.006 25.259V27.5926H172.759V6.77992H186.696V9.11355H175.741V15.6967H185.703V18.0579H175.741V25.259H187.009H187.006ZM178.405 4.30477L177.556 2.75823L182.721 0.00344849L183.658 1.69153L178.409 4.30822L178.405 4.30477Z" fill="#112B19"></path>
    <path d="M189.123 7.4807H191.962V10.6601H189.123V7.4807ZM189.123 13.584H191.962V27.5926H189.123V13.584Z" fill="#112B19"></path>
    <path d="M204.659 13.7256L203.809 16.3422C203.269 16.0316 202.503 15.8348 201.764 15.8348C199.322 15.8348 197.905 17.7196 197.905 20.9266V27.5926H195.066V13.584H197.905V19.0694H197.96C197.96 15.4412 199.636 13.3044 202.471 13.3044C203.266 13.3044 204.088 13.4735 204.655 13.7256H204.659Z" fill="#112B19"></path>
    <path d="M218.404 20.9819H207.791C207.906 23.9369 209.379 25.6802 211.737 25.6802C213.81 25.6802 215.255 24.5548 215.625 22.6423H218.404C217.924 25.9322 215.454 27.8723 211.734 27.8723C207.505 27.8723 205.035 25.1727 205.035 20.5883C205.035 16.004 207.505 13.3044 211.734 13.3044C215.963 13.3044 218.404 16.004 218.404 20.5883V20.9819ZM207.819 19.8013H215.593C215.367 17.0741 213.977 15.4965 211.734 15.4965C209.491 15.4965 208.045 17.0707 207.819 19.8013Z" fill="#112B19"></path>
    <path d="M234.097 13.584V27.5927H231.258V22.922H231.202C231.202 26.0151 229.3 27.8723 226.064 27.8723C222.375 27.8723 220.188 25.1727 220.188 20.5883C220.188 16.004 222.372 13.3044 226.064 13.3044C229.3 13.3044 231.202 15.1616 231.202 18.2547H231.258V13.584H234.097ZM231.456 20.5883C231.456 17.5505 229.924 15.5828 227.283 15.5828C224.643 15.5828 223.11 17.44 223.11 20.5883C223.11 23.7367 224.643 25.5939 227.283 25.5939C229.924 25.5939 231.456 23.6262 231.456 20.5883Z" fill="#112B19"></path>
    <path d="M249.935 18.959V27.5927H247.096V19.0418C247.096 16.8463 245.876 15.5828 243.804 15.5828C241.477 15.5828 240.087 17.2156 240.087 19.9704V27.5927H237.248V13.584H240.087V18.4515H240.143C240.143 15.2169 241.902 13.3044 244.884 13.3044C248.064 13.3044 249.935 15.4136 249.935 18.959Z" fill="#112B19"></path>
    <path d="M265.673 18.9589V27.5926H262.834V19.0418C262.834 16.8463 261.614 15.5828 259.542 15.5828C257.215 15.5828 255.825 17.2156 255.825 19.9704V27.5926H252.986V13.584H255.825V18.4515H255.881C255.881 15.2169 257.64 13.3044 260.622 13.3044C263.802 13.3044 265.673 15.4136 265.673 18.9589Z" fill="#112B19"></path>
    <path d="M84.8014 55.7169H81.454L76.4589 46.9969H71.9167V55.7169H68.9349V34.9042H76.654C81.3355 34.9042 84.1187 37.0687 84.1187 40.6968C84.1187 44.6357 81.3948 46.9417 76.7968 46.9417V46.9969C78.528 46.9969 80.2313 47.9808 81.2519 49.7551L84.798 55.7169H84.8014ZM76.856 44.7496C79.5242 44.7496 81.0569 43.3446 81.0569 40.9247C81.0569 38.5047 79.4964 37.2413 76.856 37.2413H71.9167V44.7496H76.856Z" fill="#112B19"></path>
    <path d="M98.8984 49.1096H88.2847C88.3997 52.0646 89.8731 53.8079 92.2313 53.8079C94.3039 53.8079 95.7495 52.6825 96.1187 50.7701H98.8984C98.4177 54.0599 95.948 56 92.2278 56C87.9991 56 85.5294 53.3005 85.5294 48.7161C85.5294 44.1317 87.9991 41.4321 92.2278 41.4321C96.4566 41.4321 98.8984 44.1317 98.8984 48.7161V49.1096ZM88.3126 47.929H96.0874C95.8609 45.2018 94.4711 43.6242 92.2278 43.6242C89.9846 43.6242 88.539 45.1984 88.3126 47.929Z" fill="#112B19"></path>
    <path d="M100.529 51.1912H103.225C103.225 53.0208 104.503 54.1151 106.687 54.1151C108.871 54.1151 110.094 53.3005 110.094 51.892C110.094 50.1211 108.22 49.8104 106.179 49.4444C103.737 49.0509 100.957 48.5711 100.957 45.5332C100.957 42.9752 103.085 41.4252 106.691 41.4252C110.296 41.4252 112.424 43.1409 112.424 46.0648H109.728C109.728 44.3215 108.62 43.279 106.691 43.279C104.761 43.279 103.712 44.0385 103.712 45.3054C103.712 46.7691 105.416 47.0763 107.345 47.4146C109.871 47.8634 112.853 48.3708 112.853 51.6331C112.853 54.3602 110.554 55.9931 106.694 55.9931C102.835 55.9931 100.536 54.2222 100.536 51.1843L100.529 51.1912Z" fill="#112B19"></path>
    <path d="M127.792 49.1096H117.178C117.293 52.0646 118.767 53.8079 121.125 53.8079C123.198 53.8079 124.643 52.6825 125.012 50.7701H127.792C127.311 54.0599 124.842 56 121.122 56C116.893 56 114.423 53.3005 114.423 48.7161C114.423 44.1317 116.893 41.4321 121.122 41.4321C125.35 41.4321 127.792 44.1317 127.792 48.7161V49.1096ZM117.206 47.929H124.981C124.755 45.2018 123.365 43.6242 121.122 43.6242C118.878 43.6242 117.433 45.1984 117.206 47.929Z" fill="#112B19"></path>
    <path d="M143.485 41.7118V55.7204H140.646V51.0497H140.591C140.591 54.1428 138.689 56 135.453 56C131.764 56 129.576 53.3005 129.576 48.7161C129.576 44.1317 131.76 41.4321 135.453 41.4321C138.689 41.4321 140.591 43.2894 140.591 46.3824H140.646V41.7118H143.485ZM140.848 48.7161C140.848 45.6782 139.316 43.7105 136.675 43.7105C134.035 43.7105 132.502 45.5677 132.502 48.7161C132.502 51.8644 134.035 53.7216 136.675 53.7216C139.316 53.7216 140.848 51.7539 140.848 48.7161Z" fill="#112B19"></path>
    <path d="M156.23 41.8533L155.38 44.47C154.84 44.1593 154.074 43.9625 153.335 43.9625C150.894 43.9625 149.476 45.8474 149.476 49.0544V55.7204H146.637V41.7118H149.476V47.1971H149.532C149.532 43.569 151.207 41.4321 154.042 41.4321C154.837 41.4321 155.659 41.6013 156.227 41.8533H156.23Z" fill="#112B19"></path>
    <path d="M156.401 48.7161C156.401 44.1317 159.013 41.4321 163.409 41.4321C166.987 41.4321 169.369 43.317 170.021 46.5516H167.21C166.642 44.7531 165.336 43.7105 163.406 43.7105C160.793 43.7105 159.292 45.5677 159.292 48.7161C159.292 51.8644 160.797 53.7216 163.406 53.7216C165.419 53.7216 166.785 52.5962 167.265 50.6009H170.104C169.509 54.0323 167.095 56 163.406 56C159.006 56 156.397 53.3005 156.397 48.7161H156.401Z" fill="#112B19"></path>
    <path d="M184.999 47.0832V55.7169H182.16V47.1661C182.16 44.9705 180.941 43.7071 178.868 43.7071C176.541 43.7071 175.152 45.3399 175.152 48.0947V55.7169H172.313V34.0584H175.152V46.5758H175.207C175.207 43.3411 176.966 41.4287 179.948 41.4287C183.128 41.4287 184.999 43.5379 184.999 47.0832Z" fill="#112B19"></path>
    <path d="M195.442 34.9042H198.423V55.7169H195.442V34.9042Z" fill="#112B19"></path>
    <path d="M210.654 41.8533L209.804 44.47C209.264 44.1593 208.497 43.9625 207.759 43.9625C205.317 43.9625 203.899 45.8474 203.899 49.0544V55.7204H201.061V41.7118H203.899V47.1971H203.955C203.955 43.569 205.631 41.4321 208.466 41.4321C209.26 41.4321 210.082 41.6013 210.65 41.8533H210.654Z" fill="#112B19"></path>
    <path d="M224.399 49.1096H213.785C213.9 52.0646 215.373 53.8079 217.731 53.8079C219.804 53.8079 221.25 52.6825 221.619 50.7701H224.399C223.918 54.0599 221.448 56 217.728 56C213.499 56 211.03 53.3005 211.03 48.7161C211.03 44.1317 213.499 41.4321 217.728 41.4321C221.957 41.4321 224.399 44.1317 224.399 48.7161V49.1096ZM213.813 47.929H221.587C221.361 45.2018 219.971 43.6242 217.728 43.6242C215.485 43.6242 214.039 45.1984 213.813 47.929Z" fill="#112B19"></path>
    <path d="M226.844 34.0619H229.683V55.7204H226.844V34.0619Z" fill="#112B19"></path>
    <path d="M246.058 41.7118V55.7204H243.219V51.0497H243.163C243.163 54.1428 241.261 56 238.025 56C234.336 56 232.149 53.3005 232.149 48.7161C232.149 44.1317 234.333 41.4321 238.025 41.4321C241.261 41.4321 243.163 43.2894 243.163 46.3824H243.219V41.7118H246.058ZM243.421 48.7161C243.421 45.6782 241.888 43.7105 239.248 43.7105C236.607 43.7105 235.075 45.5677 235.075 48.7161C235.075 51.8644 236.607 53.7216 239.248 53.7216C241.888 53.7216 243.421 51.7539 243.421 48.7161Z" fill="#112B19"></path>
    <path d="M261.726 47.0832V55.7169H258.887V47.1661C258.887 44.9705 257.667 43.7071 255.595 43.7071C253.268 43.7071 251.878 45.3399 251.878 48.0947V55.7169H249.039V41.7083H251.878V46.5758H251.934C251.934 43.3411 253.693 41.4287 256.675 41.4287C259.855 41.4287 261.726 43.5379 261.726 47.0832Z" fill="#112B19"></path>
    <path d="M278 34.0619V55.7204H275.161V51.0497H275.105C275.105 54.1428 273.204 56 269.968 56C266.279 56 264.091 53.3005 264.091 48.7161C264.091 44.1317 266.275 41.4321 269.968 41.4321C273.204 41.4321 275.105 43.2894 275.105 46.3824H275.161V34.0619H278ZM275.36 48.7161C275.36 45.6782 273.827 43.7105 271.187 43.7105C268.546 43.7105 267.014 45.5677 267.014 48.7161C267.014 51.8644 268.546 53.7216 271.187 53.7216C273.827 53.7216 275.36 51.7539 275.36 48.7161Z" fill="#112B19"></path>
    <path d="M32.8125 23.1222V6.77303H0.570887C0.421104 6.77303 0.403688 6.98706 0.55347 7.01122C13.0655 8.85119 24.2679 14.6645 32.809 23.1222H32.8125Z" fill="#112B19"></path>
    <path d="M49.3099 55.099V23.1498H32.8129C41.347 31.6144 47.2129 42.7163 49.0695 55.1163C49.0904 55.2647 49.3099 55.2474 49.3099 55.099Z" fill="#112B19"></path>
    <path d="M32.8129 55.5478V23.1498H0.121942C-0.0243571 23.1498 -0.0487404 23.3604 0.0975589 23.388C16.4517 26.5984 29.3295 39.3643 32.569 55.5685C32.5969 55.71 32.8094 55.6893 32.8094 55.5443L32.8129 55.5478Z" fill="#112B19"></path>
    <path d="M49.3099 19.0729L36.8988 6.77303H49.3099V19.0729Z" fill="#112B19"></path>
  </g>
  <defs>
    <clipPath id="clip0_964_992">
      <rect width="278" height="56" fill="white"></rect>
    </clipPath>
  </defs>
</svg>
